<svg xmlns="http://www.w3.org/2000/svg" width="32" height="32" viewBox="0 0 32 32">
  <metadata><?xpacket begin="﻿" id="W5M0MpCehiHzreSzNTczkc9d"?>
<x:xmpmeta xmlns:x="adobe:ns:meta/" x:xmptk="Adobe XMP Core 5.6-c140 79.160451, 2017/05/06-01:08:21        ">
   <rdf:RDF xmlns:rdf="http://www.w3.org/1999/02/22-rdf-syntax-ns#">
      <rdf:Description rdf:about=""/>
   </rdf:RDF>
</x:xmpmeta>
                                                                                                    
                                                                                                    
                                                                                                    
                                                                                                    
                                                                                                    
                                                                                                    
                                                                                                    
                                                                                                    
                                                                                                    
                                                                                                    
                                                                                                    
                                                                                                    
                                                                                                    
                                                                                                    
                                                                                                    
                                                                                                    
                                                                                                    
                                                                                                    
                                                                                                    
                                                                                                    
                           
<?xpacket end="w"?></metadata>
<defs>
    <style>
      .cls-1 {
        fill: #5376ff;
        fill-rule: evenodd;
      }
    </style>
  </defs>
  <path id="形状_1" data-name="形状 1" class="cls-1" d="M6.679,2.2L0.733,3.624l3,11.324a4.021,4.021,0,0,1,0,2.1l-3,11.313,5.93,1.421a1.579,1.579,0,0,0,1.715-.737l5.572-9.672a6.772,6.772,0,0,0,0-6.767L8.394,2.94a1.579,1.579,0,0,0-1.347-.784,1.71,1.71,0,0,0-.363.042M23.954,2.94l-5.573,9.672a6.788,6.788,0,0,0,0,6.767l5.562,9.672a1.579,1.579,0,0,0,1.715.742l5.946-1.426L28.622,17.037a4.13,4.13,0,0,1,0-2.1L31.605,3.624,25.675,2.2a1.8,1.8,0,0,0-.368-0.042,1.579,1.579,0,0,0-1.352.784"/>
</svg>
