<?xml version="1.0" encoding="UTF-8"?>
<svg width="26px" height="26px" viewBox="0 0 26 26" version="1.1" xmlns="http://www.w3.org/2000/svg" xmlns:xlink="http://www.w3.org/1999/xlink">
    <title>btn_icon copy 3</title>
    <g id="mobile-web" stroke="none" stroke-width="1" fill="none" fill-rule="evenodd" opacity="0.600000024">
        <g id="关于我们" transform="translate(-29.000000, -2591.000000)" stroke="#222D49">
            <g id="btn_icon-copy-3" transform="translate(30.000000, 2592.000000)">
                <ellipse id="Oval" cx="11.84" cy="11.8378378" rx="11.84" ry="11.8378378"></ellipse>
                <path d="M12.2516778,5.7912011 C9.89717081,5.7912011 8.05434407,9.27047677 8.05434407,12.4851609 C8.05434407,15.6998451 9.89717081,19.1245344 12.2516778,19.1245344 C12.2516778,19.1245344 12.2516778,19.1245344 12.2516778,19.1245344 C12.9569949,19.1245344 13.5287674,18.5527619 13.5287674,17.8474448 L13.5287674,17.1180565 C13.5287674,16.013487 12.6333369,15.1180565 11.5287674,15.1180565 L11.4521112,15.1180565 L11.4521112,15.1180565 C11.2722435,15.0563086 11.1630767,15.0089019 11.1246106,14.9758365 C10.4784779,14.4204221 10.1554115,13.5901969 10.1554115,12.4851609 C10.1554115,11.2814461 10.5387533,10.4532992 11.3054368,10.0007202 L11.5426638,10.0007202 C12.6472333,10.0007202 13.5426638,9.10528965 13.5426638,8.00072015 L13.5426638,7.08218707 C13.5426638,6.3691952 12.9646697,5.7912011 12.2516778,5.7912011 C12.2516778,5.7912011 12.2516778,5.7912011 12.2516778,5.7912011 Z" id="Path-2" transform="translate(10.798504, 12.457868) rotate(-30.000000) translate(-10.798504, -12.457868) "></path>
            </g>
        </g>
    </g>
</svg>