<?xml version="1.0" encoding="UTF-8"?>
<svg width="14px" height="5px" viewBox="0 0 14 5" version="1.1" xmlns="http://www.w3.org/2000/svg" xmlns:xlink="http://www.w3.org/1999/xlink">
    <title>Group 3</title>
    <g id="mobile-web" stroke="none" stroke-width="1" fill="none" fill-rule="evenodd" opacity="0.600000024">
        <g id="首页" transform="translate(-232.000000, -105.000000)" fill="#444553" fill-rule="nonzero">
            <g id="Group-3" transform="translate(232.000000, 105.000000)">
                <path d="M1.86730506,4.94528044 C2.15458276,4.94528044 2.40994072,4.90880073 2.63337893,4.83584131 C2.85681715,4.7628819 3.04491564,4.6619927 3.19767442,4.53317373 C3.3504332,4.40435477 3.46671227,4.25102599 3.54651163,4.07318741 C3.62631099,3.89534884 3.66621067,3.70155039 3.66621067,3.49179207 C3.66621067,2.91039672 3.32649339,2.54331965 2.64705882,2.39056088 C2.7998176,2.3381213 2.93148655,2.27428181 3.04206566,2.19904241 C3.15264478,2.12380301 3.24384405,2.04001368 3.31566347,1.94767442 C3.3874829,1.85533516 3.44049248,1.75615595 3.4746922,1.6501368 C3.50889193,1.54411765 3.52599179,1.43296854 3.52599179,1.31668947 C3.52599179,1.11377109 3.49179207,0.931372549 3.42339261,0.769493844 C3.35499316,0.607615139 3.24726402,0.469676243 3.1002052,0.355677155 C2.95314637,0.241678067 2.76447788,0.153898769 2.53419973,0.0923392613 C2.30392157,0.0307797538 2.02690378,0 1.70314637,0 L1.70314637,0 L0,0 L0,4.94528044 L1.86730506,4.94528044 Z M1.65184679,2.14090287 L0.91997264,2.14090287 L0.91997264,0.711354309 L1.70314637,0.711354309 C2.01322389,0.711354309 2.24122207,0.766073871 2.3871409,0.875512996 C2.53305974,0.98495212 2.60601915,1.16849065 2.60601915,1.42612859 C2.60601915,1.6746466 2.52564979,1.85590515 2.36491108,1.96990424 C2.20417237,2.08390333 1.96648427,2.14090287 1.65184679,2.14090287 L1.65184679,2.14090287 Z M1.8502052,4.22708618 L0.91997264,4.22708618 L0.91997264,2.77701778 L1.84678523,2.77701778 C2.00866393,2.77701778 2.14717282,2.79297766 2.2623119,2.8248974 C2.37745098,2.85681715 2.47150023,2.90298678 2.54445964,2.96340629 C2.61741906,3.02382581 2.67099863,3.09678523 2.70519836,3.18228454 C2.73939808,3.26778386 2.75649795,3.36411309 2.75649795,3.47127223 C2.75649795,3.57387141 2.74110807,3.67077063 2.71032832,3.7619699 C2.67954856,3.85316917 2.62938896,3.93296854 2.55984952,4.00136799 C2.49031008,4.06976744 2.39740082,4.124487 2.28112175,4.16552668 C2.16484268,4.20656635 2.02120383,4.22708618 1.8502052,4.22708618 L1.8502052,4.22708618 Z M5.90629275,4.99658003 C6.02941176,4.99658003 6.15652075,4.9874601 6.2876197,4.96922025 C6.41871865,4.95098039 6.54753762,4.91963064 6.67407661,4.875171 C6.8006156,4.83071135 6.92202462,4.77143183 7.03830369,4.69733242 C7.15458276,4.62323301 7.25946192,4.53146375 7.35294118,4.42202462 L7.35294118,4.42202462 L7.11012312,4.11422709 C7.07592339,4.06178751 7.02348381,4.03556772 6.95280438,4.03556772 C6.9003648,4.03556772 6.84621523,4.05152759 6.79035568,4.08344733 C6.73449612,4.11536708 6.66951664,4.15070679 6.59541724,4.18946648 C6.52131783,4.22822617 6.43467852,4.26356589 6.33549932,4.29548564 C6.23632011,4.32740538 6.11833105,4.34336525 5.98153215,4.34336525 C5.84473324,4.34336525 5.71990424,4.32227542 5.60704514,4.28009576 C5.49418605,4.2379161 5.39671683,4.17407661 5.31463748,4.08857729 C5.23255814,4.00307798 5.16643867,3.89477884 5.11627907,3.76367989 C5.06611947,3.63258094 5.03419973,3.47697218 5.02051984,3.29685363 L5.02051984,3.29685363 L7.19220246,3.29685363 C7.26972184,3.29685363 7.32216142,3.2746238 7.3495212,3.23016416 C7.37688098,3.18570451 7.39056088,3.0996352 7.39056088,2.97195622 C7.39056088,2.71887825 7.35237118,2.49373005 7.27599179,2.29651163 C7.1996124,2.09929321 7.09416325,1.93285454 6.95964432,1.79719562 C6.8251254,1.66153671 6.66438668,1.55836753 6.47742818,1.4876881 C6.29046968,1.41700866 6.08641131,1.38166895 5.86525308,1.38166895 C5.60305518,1.38166895 5.36764706,1.42726858 5.15902873,1.51846785 C4.9504104,1.60966712 4.77371181,1.73335613 4.62893297,1.88953488 C4.48415413,2.04571363 4.37300502,2.22925217 4.29548564,2.44015048 C4.21796626,2.65104879 4.17920657,2.87619699 4.17920657,3.11559508 C4.17920657,3.42339261 4.22366621,3.69414045 4.3125855,3.92783858 C4.40150479,4.16153671 4.52348381,4.35761514 4.67852257,4.51607387 C4.83356133,4.6745326 5.01595987,4.79423165 5.22571819,4.875171 C5.43547652,4.95611035 5.6623347,4.99658003 5.90629275,4.99658003 Z M6.63132695,2.7872777 L5.0376197,2.7872777 C5.07637939,2.53191974 5.16586867,2.33470132 5.30608755,2.19562244 C5.44630643,2.05654355 5.63839489,1.9870041 5.88235294,1.9870041 C6.00775194,1.9870041 6.11776106,2.00809394 6.2123803,2.0502736 C6.30699954,2.09245326 6.38508892,2.1500228 6.44664843,2.22298222 C6.50820793,2.29594163 6.55437756,2.38087095 6.58515732,2.47777018 C6.61593707,2.5746694 6.63132695,2.67783858 6.63132695,2.7872777 L6.63132695,2.7872777 Z M9.19288646,5 C9.36388509,5 9.52918377,4.97378021 9.68878249,4.92134063 C9.84838121,4.86890105 9.98974008,4.79138167 10.1128591,4.68878249 L10.1128591,4.68878249 L9.85978112,4.27838577 C9.84154127,4.25330597 9.8244414,4.23449612 9.80848153,4.22195622 C9.79252166,4.20941632 9.77200182,4.20314637 9.74692202,4.20314637 C9.72640219,4.20314637 9.70588235,4.20941632 9.68536252,4.22195622 C9.66484268,4.23449612 9.64147287,4.24760602 9.61525308,4.26128591 C9.58903329,4.2749658 9.55825353,4.2880757 9.52291382,4.3006156 C9.4875741,4.31315549 9.44368445,4.31942544 9.39124487,4.31942544 C9.29776562,4.31942544 9.22423621,4.28864569 9.17065663,4.22708618 C9.11707706,4.16552668 9.09028728,4.08002736 9.09028728,3.97058824 L9.09028728,3.97058824 L9.09028728,2.06908345 L10.0273598,2.06908345 L10.0273598,1.46716826 L9.09028728,1.46716826 L9.09028728,0.3625171 L8.65253078,0.3625171 C8.60237118,0.3625171 8.56133151,0.375057 8.52941176,0.400136799 C8.49749202,0.425216598 8.47583219,0.460556316 8.46443228,0.506155951 L8.46443228,0.506155951 L8.28659371,1.46374829 L7.72229822,1.55608755 L7.72229822,1.89124487 C7.72229822,1.9505244 7.73825809,1.99498404 7.77017784,2.0246238 C7.80209758,2.05426357 7.84085727,2.06908345 7.88645691,2.06908345 L7.88645691,2.06908345 L8.24555404,2.06908345 L8.24555404,4.02872777 C8.24555404,4.33196534 8.32706338,4.56965344 8.49008208,4.74179207 C8.65310078,4.91393069 8.8873689,5 9.19288646,5 Z M11.3406293,5 C11.4660283,5 11.5805974,4.98917009 11.6843365,4.96751026 C11.7880757,4.94585043 11.8855449,4.91450068 11.9767442,4.87346101 C12.0679435,4.83242134 12.1557228,4.78169175 12.2400821,4.72127223 C12.3244414,4.66085271 12.4110807,4.59074327 12.5,4.51094391 L12.5,4.51094391 L12.5752394,4.76402189 C12.6003192,4.8369813 12.6345189,4.88543092 12.6778386,4.90937073 C12.7211582,4.93331053 12.7827177,4.94528044 12.8625171,4.94528044 L12.8625171,4.94528044 L13.245554,4.94528044 L13.245554,2.72913817 C13.245554,2.53077975 13.2164843,2.34838121 13.1583447,2.18194254 C13.1002052,2.01550388 13.0152759,1.87243502 12.9035568,1.75273598 C12.7918377,1.63303694 12.6550388,1.53955768 12.4931601,1.47229822 C12.3312813,1.40503876 12.1477428,1.37140903 11.9425445,1.37140903 C11.374829,1.37140903 10.8891929,1.55608755 10.4856361,1.9254446 L10.4856361,1.9254446 L10.6361149,2.19562244 C10.6611947,2.23666211 10.6942544,2.27257182 10.7352941,2.30335157 C10.7763338,2.33413133 10.8264934,2.3495212 10.8857729,2.3495212 C10.9541724,2.3495212 11.0163019,2.33356133 11.0721614,2.30164159 C11.128021,2.26972184 11.1901505,2.23381213 11.2585499,2.19391245 C11.3269494,2.15401277 11.4061788,2.11810306 11.496238,2.08618331 C11.5862973,2.05426357 11.6997264,2.03830369 11.8365253,2.03830369 C12.0257638,2.03830369 12.1705426,2.09473324 12.2708618,2.20759234 C12.371181,2.32045144 12.4213406,2.49430005 12.4213406,2.72913817 L12.4213406,2.72913817 L12.4213406,2.93433653 C12.1545828,2.94117647 11.9174647,2.96112631 11.7099863,2.99418605 C11.502508,3.02724578 11.3206794,3.06999544 11.1645007,3.12243502 C11.0083219,3.1748746 10.876653,3.23643411 10.7694938,3.30711354 C10.6623347,3.37779298 10.5751254,3.45303238 10.5078659,3.53283174 C10.4406065,3.6126311 10.3921569,3.69642043 10.3625171,3.78419973 C10.3328773,3.87197902 10.3180575,3.96032832 10.3180575,4.04924761 C10.3180575,4.20656635 10.3431373,4.34450524 10.3932969,4.4630643 C10.4434565,4.58162335 10.5141359,4.68080255 10.6053352,4.76060192 C10.6965344,4.84040128 10.8048336,4.9002508 10.9302326,4.94015048 C11.0556316,4.98005016 11.1924305,5 11.3406293,5 Z M11.6005472,4.41860465 C11.4591883,4.41860465 11.3446192,4.38668491 11.2568399,4.32284542 C11.1690606,4.25900593 11.125171,4.15298678 11.125171,4.00478796 C11.125171,3.92954856 11.1468308,3.86000912 11.1901505,3.79616963 C11.2334701,3.73233014 11.3052896,3.67647059 11.4056088,3.62859097 C11.505928,3.58071135 11.6393069,3.54138167 11.8057456,3.51060192 C11.9721842,3.47982216 12.1773826,3.45873233 12.4213406,3.44733242 L12.4213406,3.44733242 L12.4213406,4.03898769 C12.3005016,4.16666667 12.1768126,4.26185591 12.0502736,4.3245554 C11.9237346,4.3872549 11.7738258,4.41860465 11.6005472,4.41860465 Z" id="Beta"></path>
            </g>
        </g>
    </g>
</svg>