<?xml version="1.0" encoding="UTF-8"?>
<svg width="100px" height="40px" viewBox="0 0 100 40" version="1.1" xmlns="http://www.w3.org/2000/svg" xmlns:xlink="http://www.w3.org/1999/xlink">
    <title>Group 41</title>
    <defs>
        <polygon id="path-1" points="0 39.6648045 100 39.6648045 100 0 0 0"></polygon>
    </defs>
    <g id="mobile-web" stroke="none" stroke-width="1" fill="none" fill-rule="evenodd">
        <g id="首页" transform="translate(-30.000000, -4029.000000)">
            <g id="Group-41" transform="translate(30.000000, 4029.000000)">
                <path d="M85.5109643,29.0502793 L72.6256983,29.0502793 L72.6256983,26.9749235 L85.5109643,26.9749235 C92.3587022,26.9749235 97.9298028,21.3899408 97.9298028,14.5251397 C97.9298028,7.66033852 92.3587022,2.07535579 85.5109643,2.07535579 L72.6256983,2.07535579 L72.6256983,0 L85.5109643,0 C93.5002654,0 100,6.51616582 100,14.5251397 C100,22.5343486 93.5002654,29.0502793 85.5109643,29.0502793" id="Fill-1" fill="#222D49"></path>
                <polygon id="Fill-3" fill="#222D49" points="28.4916201 28.4916201 0 28.4916201 0 0.558659218 2.08638399 0.558659218 2.08638399 26.4186679 26.4052361 26.4186679 26.4052361 0.558659218 28.4916201 0.558659218"></polygon>
                <polygon id="Fill-5" fill="#222D49" points="63.8875451 28.4916201 51.0805589 15.7788963 38.3473282 28.4184061 36.8715084 26.9536563 51.0805589 12.849162 65.3631285 27.0268703"></polygon>
                <polygon id="Fill-7" fill="#222D49" points="43.1768598 8.37988827 36.8715084 2.07409823 38.3871432 0.558659218 44.6927374 6.86420644"></polygon>
                <polygon id="Fill-9" fill="#222D49" points="59.0521423 8.37988827 57.5418994 6.86964538 63.8531275 0.558659218 65.3631285 2.06866016"></polygon>
                <path d="M2.11133203,38.1441451 C2.11133203,38.1901654 2.11021149,38.2359644 2.10774629,38.2808784 C2.10595341,38.3171636 2.1007989,38.3547763 2.09205865,38.3979202 C2.07928443,38.4676144 2.05709763,38.5417335 2.02549824,38.6180652 C1.99815693,38.6842193 1.95692085,38.7497096 1.90963382,38.8032524 C1.78816668,38.9298081 1.61560266,38.9915371 1.38118452,38.9915371 C1.15416198,38.9915371 0.990114098,38.9337906 0.881421175,38.8171912 C0.824497458,38.7536921 0.781692616,38.685768 0.754127194,38.6151889 C0.722751917,38.5348747 0.703702641,38.4598706 0.692273076,38.3689363 C0.685325693,38.3346424 0.681739947,38.299021 0.681739947,38.2627358 L0.681739947,33.5195531 L0,33.5195531 L0,38.2129543 C0,38.2974722 0.00851614661,38.3939377 0.0262207672,38.5085458 C0.0445977152,38.6264727 0.079334629,38.7517009 0.129535072,38.8800266 C0.185786462,39.0238398 0.269827382,39.154378 0.378296197,39.2678799 C0.624368012,39.53139 0.961876349,39.6648045 1.38118452,39.6648045 C1.8108017,39.6648045 2.15324044,39.5316113 2.3979676,39.2696499 C2.50755696,39.1550418 2.59114966,39.0276011 2.64628051,38.8917529 C2.69603273,38.7716135 2.73301074,38.6554566 2.7567663,38.546601 C2.78141831,38.4328779 2.79329609,38.3361912 2.79329609,38.2512307 L2.79329609,33.5195531 L2.11133203,33.5195531 L2.11133203,38.1441451 Z" id="Fill-11" fill="#222D49"></path>
                <path d="M6.98691097,36.4725257 C6.85065769,36.3599753 6.70921972,36.2504845 6.56798915,36.1482057 C6.44977853,36.058384 6.33488611,35.9692178 6.22393404,35.8798331 C6.12521781,35.80072 6.03749309,35.7130837 5.96304114,35.6199838 C5.89190738,35.530162 5.83383901,35.4311614 5.79049512,35.3260415 C5.75088419,35.2294449 5.73076765,35.1140534 5.73076765,34.9835823 C5.73076765,34.8887341 5.73657449,34.809621 5.74839555,34.7473358 C5.75980184,34.6846135 5.77991838,34.6142422 5.80853779,34.5368775 C5.83010605,34.4772149 5.86473968,34.4203933 5.9124387,34.3670685 C6.01882825,34.2440279 6.17934583,34.1843653 6.40311645,34.1843653 C6.51966797,34.1843653 6.61713988,34.2007561 6.69283615,34.2335378 C6.7639699,34.2643526 6.8216235,34.3065316 6.86787081,34.3620419 C6.90727435,34.4096846 6.93464944,34.4634466 6.9512404,34.5259503 C6.97384559,34.6109641 6.98960701,34.6929182 6.9976951,34.7689717 C7.0057832,34.8456808 7.00764968,34.9396549 7.00350194,35.0489271 L6.99313259,35.3127103 L7.63105513,35.3109619 L7.63437332,35.0602914 C7.63458071,35.0519868 7.63561765,35.0183309 7.63810629,34.9588868 C7.64080232,34.8791181 7.63686197,34.7857996 7.62607784,34.6736863 C7.61487894,34.5600432 7.59123682,34.4396252 7.55577363,34.3152734 C7.51512577,34.1743122 7.4475176,34.0438412 7.35419343,33.9258272 C7.13498532,33.6561434 6.8151945,33.5195531 6.40311645,33.5195531 C5.99995603,33.5195531 5.67809134,33.6524281 5.44975821,33.9116218 C5.34502775,34.0224239 5.26725761,34.14612 5.21872904,34.2798692 C5.17745902,34.3932938 5.14697312,34.5014733 5.12851568,34.6013481 C5.10902129,34.7045011 5.09968888,34.7934487 5.09968888,34.8736545 L5.09968888,34.9912314 C5.09968888,35.3782736 5.22536543,35.734064 5.47485204,36.0505164 C5.58144898,36.179239 5.7011113,36.2970345 5.83114298,36.4006246 C5.95039053,36.4952543 6.07585969,36.591851 6.20589137,36.6882291 C6.3382043,36.7876668 6.46802859,36.8886343 6.59557162,36.9909131 C6.7096345,37.0818276 6.81332802,37.1867289 6.90395616,37.3021204 C6.99002178,37.4120483 7.06032599,37.5401153 7.1130023,37.6826063 C7.16401951,37.8220377 7.19015028,37.9911911 7.19015028,38.1856956 C7.19015028,38.344796 7.16754509,38.4770154 7.12274949,38.57842 C7.07899082,38.6782948 7.021752,38.7587192 6.95269211,38.8172891 C6.87948449,38.8795743 6.79632228,38.92525 6.70486459,38.9532237 C6.51759409,39.0113566 6.34152249,39.0150718 6.13351329,38.9645881 C6.05470621,38.9455747 5.98004688,38.9062367 5.91098699,38.8478853 C5.84275665,38.7897525 5.78344396,38.7025533 5.73491539,38.5886916 C5.68452034,38.4706776 5.65901173,38.3069878 5.65901173,38.1022116 L5.65901173,37.8491372 L5.02793296,37.8491372 L5.02793296,38.1022116 C5.02793296,38.3412993 5.0625666,38.5698968 5.13038216,38.7810107 C5.20358979,39.0096082 5.31806743,39.1971193 5.47215601,39.3400474 C5.62665936,39.4777304 5.7956798,39.5684264 5.97424004,39.6097313 C6.13164681,39.6462282 6.27598819,39.6648045 6.40311645,39.6648045 C6.77496142,39.6648045 7.09205621,39.5535653 7.34693488,39.3334911 C7.66154103,39.0572509 7.82122905,38.6713014 7.82122905,38.1856956 C7.82122905,37.6939706 7.67688767,37.2579744 7.3915231,36.8890714 C7.27020168,36.7341234 7.13394839,36.5940364 6.98691097,36.4725257" id="Fill-13" fill="#222D49"></path>
                <polygon id="Fill-15" fill="#222D49" points="10.2006744 37.2572551 11.8101197 37.2572551 11.8101197 36.5926257 10.2006744 36.5926257 10.2006744 34.1844059 12.2583694 34.1844059 12.2583694 33.5195531 9.4972067 33.5195531 9.4972067 39.6648045 12.2905028 39.6648045 12.2905028 38.9999516 10.2006744 38.9999516"></polygon>
                <path d="M16.4859174,36.0217309 C16.4147592,36.1135193 16.3218024,36.1853537 16.2098033,36.2361838 C16.13188,36.2710508 15.9642572,36.3128492 15.6094681,36.3128492 L15.0837989,36.3128492 L15.0837989,34.0782123 L15.6094681,34.0782123 C15.8437391,34.0782123 16.0369188,34.106568 16.1834948,34.1622291 C16.3190463,34.2143195 16.4177658,34.2811129 16.4829107,34.3653397 C16.5668474,34.4775021 16.6344979,34.6079382 16.6843588,34.7524471 C16.7344703,34.8975861 16.7597765,35.0456658 16.7597765,35.192065 C16.7597765,35.3432953 16.7344703,35.4934753 16.6843588,35.6386143 C16.6339968,35.7845935 16.5668474,35.9141894 16.4859174,36.0217309 M16.8705995,36.9850565 L16.8710778,36.9846095 C16.9999992,36.8891836 17.1124167,36.7718566 17.204025,36.6375452 C17.3243357,36.4661361 17.4183359,36.2685798 17.4833945,36.0504634 C17.548214,35.8356992 17.5807433,35.6128897 17.5807433,35.3885158 C17.5807433,35.1690585 17.548214,34.9489308 17.4836337,34.7341665 C17.4188142,34.5180614 17.3252924,34.3189408 17.2049818,34.1410508 C17.066493,33.9403658 16.8701211,33.7837064 16.6213675,33.6750951 C16.3836164,33.5716239 16.0920484,33.5195531 15.7547959,33.5195531 L14.5251397,33.5195531 L14.5251397,39.6648045 L15.2529832,39.6648045 L15.2529832,37.2572551 L15.7547959,37.2572551 C15.8287044,37.2572551 15.8985468,37.2559142 15.9636054,37.2536794 L17.089694,39.6569827 L17.877095,39.6569827 L16.6761411,37.0983608 C16.746701,37.0664032 16.8117597,37.0284116 16.8705995,36.9850565" id="Fill-17" fill="#222D49"></path>
                <polygon id="Fill-19" fill="#222D49" points="24.7258141 37.2572551 26.3352593 37.2572551 26.3352593 36.5926257 24.7258141 36.5926257 24.7258141 34.1844059 26.783509 34.1844059 26.783509 33.5195531 24.0223464 33.5195531 24.0223464 39.6648045 26.8156425 39.6648045 26.8156425 38.9999516 24.7258141 38.9999516"></polygon>
                <polygon id="Fill-21" fill="#222D49" points="29.9911749 36.4720052 31.185634 33.5195531 30.4173791 33.5195531 29.6020833 35.5793511 28.7995524 33.5195531 28.0317703 33.5195531 29.2170103 36.4715559 27.9329609 39.6648045 28.7078346 39.6648045 29.6082294 37.4203658 30.5088605 39.6569426 31.2849162 39.6569426 30.1753197 36.931585"></polygon>
                <path d="M35.1955307,35.192065 C35.1955307,35.3432953 35.1702282,35.4934753 35.1201243,35.6386143 C35.0700203,35.7839634 35.0026305,35.9135593 34.921462,36.021941 C34.8498134,36.1137293 34.757121,36.1857738 34.6456397,36.2361838 C34.567728,36.2712608 34.4001303,36.3128492 34.0451437,36.3128492 L33.5195531,36.3128492 L33.5195531,34.0782123 L34.0451437,34.0782123 C34.2796302,34.0782123 34.472781,34.106778 34.6190846,34.1622291 C34.7548663,34.2143195 34.8533206,34.2813229 34.9187063,34.3655498 C35.0018789,34.476662 35.0697698,34.606888 35.1201243,34.7524471 C35.1702282,34.8977962 35.1955307,35.0456658 35.1955307,35.192065 M35.4078702,34.1370281 C35.2666312,33.9309796 35.0882241,33.7756611 34.8770215,33.6750951 C34.6596971,33.5718474 34.392961,33.5195531 34.0849026,33.5195531 L32.9608939,33.5195531 L32.9608939,39.6648045 L33.6262038,39.6648045 L33.6262038,37.2572551 L34.0849026,37.2572551 C34.4305664,37.2572551 34.6979585,37.2065251 34.9026019,37.1023835 C35.1089945,36.996454 35.2797494,36.8402415 35.4098379,36.6375452 C35.5198119,36.4661361 35.605736,36.2688033 35.6654236,36.0504634 C35.7244554,35.8354757 35.7541899,35.6126662 35.7541899,35.3885158 C35.7541899,35.169729 35.7244554,34.9493777 35.6654236,34.7341665 C35.612951,34.5424208 35.5453924,34.3374897 35.4078702,34.1370281" id="Fill-23" fill="#222D49"></path>
                <polygon id="Fill-25" fill="#222D49" points="38.6922945 37.2572551 40.3017398 37.2572551 40.3017398 36.5926257 38.6922945 36.5926257 38.6922945 34.1844059 40.7499895 34.1844059 40.7499895 33.5195531 37.9888268 33.5195531 37.9888268 39.6648045 40.7821229 39.6648045 40.7821229 38.9999516 38.6922945 38.9999516"></polygon>
                <path d="M44.4186687,36.0217309 C44.3475211,36.1135193 44.2545782,36.1855637 44.1425959,36.2361838 C44.0646842,36.2710508 43.8970865,36.3128492 43.5423504,36.3128492 L43.0167598,36.3128492 L43.0167598,34.0782123 L43.5423504,34.0782123 C43.7765864,34.0782123 43.9697372,34.106568 44.1162913,34.1622291 C44.2518225,34.2143195 44.3502768,34.2811129 44.415913,34.3653397 C44.4995866,34.4775021 44.5674775,34.6079382 44.617331,34.7524471 C44.6671844,34.8975861 44.6927374,35.0456658 44.6927374,35.192065 C44.6927374,35.3432953 44.6671844,35.4934753 44.617331,35.6386143 C44.566726,35.7845935 44.4995866,35.9141894 44.4186687,36.0217309 M44.8035604,36.9850565 L44.8042779,36.9846095 C44.9334385,36.8889601 45.0456168,36.7716332 45.1369859,36.6375452 C45.2570574,36.4663596 45.3512967,36.2688033 45.4165946,36.0504634 C45.4811749,35.8352522 45.5139434,35.6124427 45.5139434,35.3885158 C45.5139434,35.169729 45.4811749,34.9493777 45.4165946,34.7341665 C45.3520143,34.5180614 45.2584925,34.3189408 45.1379427,34.1410508 C44.9994539,33.9403658 44.803082,33.7837064 44.5543284,33.6750951 C44.3165773,33.5716239 44.0250093,33.5195531 43.6877568,33.5195531 L42.4581006,33.5195531 L42.4581006,39.6648045 L43.1859441,39.6648045 L43.1859441,37.2572551 L43.6877568,37.2572551 C43.7616653,37.2572551 43.8315077,37.2559142 43.8968055,37.2536794 L45.0226549,39.6569827 L45.8100559,39.6569827 L44.609102,37.0983608 C44.6796619,37.0664032 44.7447206,37.0284116 44.8035604,36.9850565" id="Fill-27" fill="#222D49"></path>
                <mask id="mask-2" fill="white">
                    <use xlink:href="#path-1"></use>
                </mask>
                <g id="Clip-30"></g>
                <polygon id="Fill-29" fill="#222D49" mask="url(#mask-2)" points="47.4860335 39.6648045 48.0446927 39.6648045 48.0446927 33.5195531 47.4860335 33.5195531"></polygon>
                <polygon id="Fill-31" fill="#222D49" mask="url(#mask-2)" points="50.9826243 37.2572551 52.5922028 37.2572551 52.5922028 36.5926257 50.9826243 36.5926257 50.9826243 34.1844059 53.0407208 34.1844059 53.0407208 33.5195531 50.2793296 33.5195531 50.2793296 39.6648045 53.0726257 39.6648045 53.0726257 38.9999516 50.9826243 38.9999516"></polygon>
                <polygon id="Fill-32" fill="#222D49" mask="url(#mask-2)" points="57.4790773 37.6975106 55.8190707 33.5195531 55.3072626 33.5195531 55.3072626 39.6648045 55.9297651 39.6648045 55.9181238 35.4660634 57.5811939 39.6648045 58.1005587 39.6648045 58.1005587 33.5195531 57.4790773 33.5195531"></polygon>
                <path d="M62.0756199,33.849378 C61.8085983,33.630512 61.4992983,33.5195531 61.1561756,33.5195531 C60.9859493,33.5195531 60.8181707,33.5509442 60.6572902,33.6126365 C60.4972998,33.6741108 60.3551108,33.7593465 60.2325034,33.8672535 C59.9329941,34.141708 59.7812369,34.5212356 59.7812369,34.9947186 L59.7812369,38.0982994 C59.7812369,38.1124691 59.7796792,38.152144 59.7772315,38.2175422 C59.7741163,38.3036498 59.7814594,38.4019651 59.7994833,38.5183739 C59.8177298,38.6345647 59.8524426,38.7575134 59.9020641,38.8835139 C59.9572486,39.024338 60.0431405,39.1551345 60.153287,39.2689273 C60.388266,39.5318281 60.7258258,39.6648045 61.1561756,39.6648045 C61.58252,39.6648045 61.9254203,39.5340081 62.175753,39.2759031 C62.287012,39.1608023 62.3713463,39.027608 62.4267533,38.880462 C62.4757073,38.7501016 62.5113102,38.6227931 62.5315593,38.5024604 C62.5522535,38.3816917 62.5622668,38.2803245 62.5622668,38.1926909 L62.5622668,37.823191 L61.8851445,37.823191 L61.8851445,38.0758461 C61.8851445,38.1933448 61.878469,38.2942761 61.8651179,38.3762418 C61.8526569,38.4545017 61.829515,38.5390834 61.7963598,38.6273709 C61.7705478,38.697783 61.7304945,38.7612193 61.6782028,38.8161538 C61.5580431,38.9408463 61.3873718,39.0012307 61.1561756,39.0012307 C60.9341026,39.0012307 60.7761148,38.9428083 60.6581803,38.8168077 C60.6049985,38.7612193 60.5645002,38.698001 60.5382431,38.6293329 C60.5062005,38.5449692 60.4848388,38.4673633 60.475048,38.3989132 C60.463477,38.3213073 60.4581366,38.225608 60.4581366,38.1059292 L60.4581366,34.9947186 C60.4581366,34.8458287 60.4794983,34.7167762 60.5215542,34.6110491 C60.56183,34.5101179 60.6141217,34.4281521 60.6768718,34.3679858 C60.7402894,34.3078194 60.8141654,34.2613867 60.896052,34.2306496 C61.0720638,34.1663413 61.235392,34.1667773 61.408956,34.2334835 C61.4937354,34.2657466 61.5713941,34.3165392 61.6403747,34.3847713 C61.7100229,34.4525675 61.7687676,34.544343 61.8148288,34.6579178 C61.8613351,34.7728007 61.8851445,34.9140608 61.8851445,35.0779923 L61.8851445,35.3304294 L62.5698324,35.3304294 L62.5698324,35.0779923 C62.5698324,34.833403 62.5295566,34.6018934 62.4498952,34.3902212 C62.3626681,34.1587115 62.243621,33.9867143 62.0756199,33.849378" id="Fill-33" fill="#222D49" mask="url(#mask-2)"></path>
                <polygon id="Fill-34" fill="#222D49" mask="url(#mask-2)" points="65.507764 37.2572551 67.1173425 37.2572551 67.1173425 36.5926257 65.507764 36.5926257 65.507764 34.1844059 67.5658605 34.1844059 67.5658605 33.5195531 64.8044693 33.5195531 64.8044693 39.6648045 67.5977654 39.6648045 67.5977654 38.9999516 65.507764 38.9999516"></polygon>
                <path d="M76.5363128,34.9531459 L76.5363128,38.2309768 C76.5363128,38.3960542 76.5112202,38.536006 76.4626033,38.6470752 C76.4142477,38.7560309 76.3515162,38.8454968 76.2757156,38.9133593 C76.2025288,38.9795781 76.1196709,39.0277159 76.0289715,39.057303 C75.9306921,39.089708 75.828492,39.1061453 75.7255077,39.1061453 L74.8603352,39.1061453 L74.8603352,34.0782123 L75.7255077,34.0782123 C75.8261395,34.0782123 75.92651,34.0955889 76.0234825,34.1289331 C76.1178412,34.1618077 76.2040971,34.211824 76.2793749,34.2780428 C76.3530845,34.3423831 76.4145091,34.43044 76.4618191,34.5396306 C76.5112202,34.6537523 76.5363128,34.7925301 76.5363128,34.9531459 M76.2163957,33.6105061 L76.2161722,33.6105061 C76.0579346,33.5501687 75.891651,33.5195531 75.7217915,33.5195531 L74.301676,33.5195531 L74.301676,39.6648045 L75.7217915,39.6648045 C75.8923215,39.6648045 76.0586051,39.6341888 76.2157252,39.5742984 C76.3764213,39.5135141 76.519014,39.4245723 76.6372452,39.3123894 C76.9412044,39.0410946 77.0949721,38.6504659 77.0949721,38.1519003 L77.0949721,35.0324572 C77.0949721,34.5470765 76.9427689,34.158012 76.6428327,33.877108 C76.520355,33.7613496 76.3768683,33.6715139 76.2163957,33.6105061" id="Fill-35" fill="#222D49" mask="url(#mask-2)"></path>
                <polygon id="Fill-36" fill="#222D49" mask="url(#mask-2)" points="79.4744174 37.2572551 81.0836315 37.2572551 81.0836315 36.5926257 79.4744174 36.5926257 79.4744174 34.1844059 81.5321124 34.1844059 81.5321124 33.5195531 78.7709497 33.5195531 78.7709497 39.6648045 81.5642458 39.6648045 81.5642458 38.9999516 79.4744174 38.9999516"></polygon>
                <path d="M85.1991395,36.4725257 C85.0634983,36.3601938 84.9220499,36.2507031 84.780394,36.1482057 C84.6619672,36.058384 84.5472737,35.9692178 84.4363133,35.8798331 C84.3377972,35.80072 84.2496511,35.7130837 84.1754011,35.6197652 C84.1046768,35.5305991 84.0463968,35.4315985 84.0028422,35.3260415 C83.9632284,35.2294449 83.9431103,35.1140534 83.9431103,34.9835823 C83.9431103,34.8891711 83.9489176,34.8100581 83.9607395,34.7468987 C83.9719393,34.6850506 83.9920573,34.6146793 84.0208863,34.5368775 C84.0424561,34.4772149 84.0770923,34.4203933 84.1247949,34.3670685 C84.2311923,34.2440279 84.3917218,34.1843653 84.6155091,34.1843653 C84.7320692,34.1843653 84.829341,34.2007561 84.9050429,34.2335378 C84.9763893,34.2643526 85.0340472,34.3065316 85.0805053,34.3622605 C85.119497,34.4096846 85.1468741,34.4634466 85.1636737,34.5257317 C85.1862806,34.6118382 85.2020432,34.6935739 85.2101319,34.7689717 C85.2182206,34.8458993 85.2200872,34.9398735 85.2157317,35.0489271 L85.2057764,35.3127103 L85.8437463,35.3109619 L85.8468574,35.0602914 C85.8468574,35.0519868 85.8481018,35.0181124 85.8503832,34.9593239 C85.8532868,34.8813035 85.8495536,34.7879851 85.8385613,34.6736863 C85.8273615,34.5600432 85.803925,34.4396252 85.7684592,34.3152734 C85.7278084,34.1747493 85.6601952,34.0442783 85.5664493,33.9258272 C85.3474323,33.6561434 85.0276177,33.5195531 84.6155091,33.5195531 C84.2123187,33.5195531 83.8904301,33.6524281 83.66208,33.9116218 C83.5571344,34.0226424 83.4793585,34.1465571 83.4308263,34.2800878 C83.3891384,34.3948236 83.3588577,34.5034402 83.3410211,34.6013481 C83.3215252,34.7045011 83.3119847,34.7934487 83.3119847,34.8736545 L83.3119847,34.9912314 C83.3119847,35.3782736 83.4376706,35.734064 83.6871757,36.0505164 C83.7935732,36.1790205 83.9132444,36.2965974 84.0432857,36.4006246 C84.1627495,36.4952543 84.288228,36.591851 84.4180619,36.6886661 C84.5505921,36.7876668 84.6806334,36.8886343 84.8079785,36.9909131 C84.9218425,37.0816091 85.0255437,37.1865104 85.116386,37.3019019 C85.2026654,37.4122668 85.2729748,37.5403339 85.3254476,37.6830434 C85.3764686,37.8218191 85.4026013,37.9909725 85.4026013,38.1856956 C85.4026013,38.344796 85.3799945,38.4770154 85.3354029,38.57842 C85.2912262,38.6787319 85.2339831,38.7587192 85.1653329,38.8170705 C85.0919125,38.8795743 85.0087441,38.92525 84.9170722,38.9532237 C84.73041,39.0115751 84.5545327,39.0150718 84.3458859,38.9645881 C84.267073,38.9455747 84.1922007,38.9062367 84.1233431,38.8478853 C84.0551077,38.7897525 83.9957906,38.7025533 83.9472584,38.5886916 C83.8966522,38.4706776 83.8711417,38.3072063 83.8711417,38.1022116 L83.8711417,37.8491372 L83.2402235,37.8491372 L83.2402235,38.1022116 C83.2402235,38.3410807 83.2748597,38.5696782 83.3426803,38.7810107 C83.4161007,39.0098268 83.5303795,39.1973379 83.6844795,39.3400474 C83.8389943,39.4775119 84.0078199,39.5684264 84.1866008,39.6097313 C84.3440193,39.6462282 84.4883714,39.6648045 84.6155091,39.6648045 C84.9871742,39.6648045 85.3045,39.5535653 85.5591902,39.3334911 C85.8740271,39.0572509 86.0335196,38.6713014 86.0335196,38.1856956 C86.0335196,37.6939706 85.8891675,37.2579744 85.6039891,36.8890714 C85.4828661,36.7343419 85.3466027,36.5940364 85.1991395,36.4725257" id="Fill-37" fill="#222D49" mask="url(#mask-2)"></path>
                <polygon id="Fill-38" fill="#222D49" mask="url(#mask-2)" points="88.2681564 39.6648045 88.8268156 39.6648045 88.8268156 33.5195531 88.2681564 33.5195531"></polygon>
                <path d="M91.7669386,37.1849304 L92.6107157,37.1929968 L92.6171857,38.1585671 C92.6171857,38.2588522 92.6107157,38.3438764 92.5979988,38.4118958 C92.5852819,38.4790432 92.5627485,38.5531669 92.5301754,38.6331769 C92.5045185,38.6974901 92.4636905,38.7596232 92.4096995,38.816088 C92.2892237,38.9407903 92.1178802,39.0011793 91.8862989,39.0011793 C91.6631955,39.0011793 91.5050152,38.9427524 91.3872166,38.816306 C91.3336717,38.7604952 91.2930669,38.6972721 91.2667407,38.6285986 C91.2343907,38.5442284 91.2131959,38.4666165 91.2031562,38.3979431 C91.1920011,38.3214213 91.1862004,38.2226623 91.1862004,38.1042824 L91.1862004,34.9886886 C91.1862004,34.8400052 91.2076183,34.7124688 91.2493386,34.6089136 C91.2899435,34.5086286 91.3437114,34.4253484 91.4086345,34.3612532 C91.4699879,34.3008642 91.5416041,34.2559539 91.6205827,34.2282666 C91.8017427,34.1659154 91.9677316,34.1670055 92.1288123,34.2319727 C92.2066754,34.2627123 92.2789609,34.3124188 92.3436609,34.3791301 C92.4099226,34.4473675 92.4661447,34.5391501 92.5105423,34.6518617 C92.5558322,34.7652274 92.5785888,34.9058444 92.5785888,35.0702247 L92.5785888,35.3226813 L93.2572694,35.3226813 L93.2572694,35.0702247 C93.2572694,34.8127538 93.2173339,34.5844964 93.1383553,34.3913387 C93.0593767,34.197963 92.9525101,34.0329288 92.8202098,33.9010322 C92.6859015,33.7669555 92.533745,33.6681965 92.3673099,33.6073715 C92.0433637,33.4887736 91.7038003,33.4902996 91.3858779,33.6119497 C91.2254666,33.6736468 91.0829035,33.7586711 90.9599735,33.8665865 C90.6598994,34.1414982 90.5075198,34.5208372 90.5075198,34.9950109 L90.5075198,38.0981781 C90.5075198,38.1084246 90.5066274,38.1330599 90.5052887,38.1714298 L90.5035039,38.2176481 C90.5003805,38.3031084 90.5075198,38.4012133 90.5255912,38.5180671 C90.5443318,38.634921 90.5789129,38.7580971 90.6286649,38.8834534 C90.6844408,39.0247245 90.7703356,39.155749 90.8805487,39.2693327 C91.1165921,39.5318178 91.4548169,39.6648045 91.8862989,39.6648045 C92.3099723,39.6648045 92.652436,39.5298557 92.9058815,39.2617023 C93.0060549,39.1520428 93.0861491,39.0299567 93.1439329,38.8980601 C93.1972546,38.775538 93.2351822,38.6589022 93.2566001,38.5516408 C93.2766794,38.4493937 93.288727,38.3576111 93.2920735,38.2776011 C93.2945277,38.2074016 93.2960894,38.1635814 93.2960894,38.1474486 L93.2960894,36.5339499 L91.7669386,36.5223953 L91.7669386,37.1849304 Z" id="Fill-39" fill="#222D49" mask="url(#mask-2)"></path>
                <polygon id="Fill-40" fill="#222D49" mask="url(#mask-2)" points="97.7026998 33.5195531 97.7026998 37.6975106 96.0425718 33.5195531 95.5307263 33.5195531 95.5307263 39.6648045 96.15307 39.6648045 96.1412236 35.4658399 97.8046196 39.6648045 98.3240223 39.6648045 98.3240223 33.5195531"></polygon>
            </g>
        </g>
    </g>
</svg>