<?xml version="1.0" encoding="UTF-8"?>
<svg width="35px" height="8px" viewBox="0 0 35 8" version="1.1" xmlns="http://www.w3.org/2000/svg" xmlns:xlink="http://www.w3.org/1999/xlink">
    <title>Group 17 Copy</title>
    <g id="mobile-web" stroke="none" stroke-width="1" fill="none" fill-rule="evenodd" opacity="0.600000024">
        <g id="流体动画工具" transform="translate(-116.000000, -370.000000)" fill="#222D49">
            <g id="Group-17-Copy" transform="translate(116.000000, 370.000000)">
                <polygon id="Fill-1" points="1.67243956 6.87945495 -1.6443989e-13 6.87945495 2.01898901 3.63127912 0.147340659 0.443938462 1.80237363 0.443938462 2.94610989 2.54275165 4.1592967 0.443938462 5.83156044 0.443938462 3.84720879 3.63127912 5.81432967 6.87945495 4.1592967 6.87945495 2.92887912 4.71980659"></polygon>
                <path d="M6.45381635,6.87947253 L7.89299045,6.87947253 L7.89299045,2.10742857 L6.45381635,2.10742857 L6.45381635,6.87947253 Z M7.18707527,1.61969231 C6.94246962,1.61969231 6.73785652,1.54268132 6.57286397,1.38883516 C6.40787141,1.23516484 6.32546813,1.04210989 6.32546813,0.809846154 C6.32546813,0.577758242 6.40787141,0.384527473 6.57286397,0.230681319 C6.73785652,0.0768351648 6.94246962,-2.0301221e-13 7.18707527,-2.0301221e-13 C7.42535652,-2.0301221e-13 7.62699343,0.0768351648 7.792172,0.230681319 C7.95697855,0.384527473 8.03975385,0.577758242 8.03975385,0.809846154 C8.03975385,1.04210989 7.95697855,1.23516484 7.792172,1.38883516 C7.62699343,1.54268132 7.42535652,1.61969231 7.18707527,1.61969231 L7.18707527,1.61969231 Z" id="Fill-2"></path>
                <path d="M9.9560967,4.48471209 C9.9560967,4.8389978 10.0688,5.14071209 10.2940308,5.39020659 C10.5308659,5.63425055 10.8225582,5.7560967 11.1689319,5.7560967 C11.5214593,5.7560967 11.8131516,5.63126154 12.0443604,5.38176703 C12.2811956,5.12629451 12.3995253,4.82739341 12.3995253,4.48471209 C12.3995253,4.14238242 12.2811956,3.84611868 12.0443604,3.59644835 C11.8073495,3.35275604 11.5156571,3.23055824 11.1689319,3.23055824 C10.8225582,3.23055824 10.5308659,3.35275604 10.2940308,3.59644835 C10.0688,3.84031648 9.9560967,4.1364044 9.9560967,4.48471209 M12.3995253,2.61253626 L12.3995253,2.10739341 L13.681811,2.10739341 L13.681811,6.87943736 L12.3995253,6.87943736 L12.3995253,6.39187692 C11.9951297,6.79820659 11.5068659,7.00128352 10.9350857,7.00128352 C10.2593934,7.00128352 9.69886593,6.7604044 9.25420659,6.27864615 C8.81517363,5.79671209 8.59574505,5.19293187 8.59574505,4.46712967 C8.59574505,3.75908571 8.81781099,3.16690989 9.26282198,2.69077802 C9.70185495,2.22062418 10.2593934,1.98537143 10.9350857,1.98537143 C11.5068659,1.98537143 11.9951297,2.19442637 12.3995253,2.61253626" id="Fill-4"></path>
                <path d="M18.2656703,4.48471209 C18.2656703,4.14238242 18.1473407,3.8520967 17.9103297,3.61403077 C17.6734945,3.36998681 17.3876044,3.24814066 17.0528352,3.24814066 C16.7175385,3.24814066 16.4314725,3.36998681 16.1948132,3.61403077 C15.9636044,3.84611868 15.8482637,4.1364044 15.8482637,4.48471209 C15.8482637,4.8448 15.9636044,5.1437011 16.1948132,5.38176703 C16.4314725,5.61965714 16.7175385,5.73869011 17.0528352,5.73869011 C17.3876044,5.73869011 17.6734945,5.61965714 17.9103297,5.38176703 C18.1473407,5.1320967 18.2656703,4.83301978 18.2656703,4.48471209 M17.0528352,7.01007473 C16.3015385,7.01007473 15.6865055,6.76937143 15.207033,6.28726154 C14.7331868,5.8055033 14.4965275,5.20752527 14.4965275,4.4935033 C14.4965275,3.77930549 14.7331868,3.18431648 15.207033,2.70818462 C15.6865055,2.22062418 16.3015385,1.97658022 17.0528352,1.97658022 C17.815033,1.97658022 18.4332308,2.22062418 18.9067253,2.70818462 C19.3863736,3.19011868 19.626022,3.78510769 19.626022,4.4935033 C19.626022,5.19592088 19.3863736,5.7938989 18.9067253,6.28726154 C18.4272527,6.76937143 17.8092308,7.01007473 17.0528352,7.01007473" id="Fill-5"></path>
                <polygon id="Fill-6" points="22.0088088 6.87945495 20.5790066 6.87945495 20.5790066 0.443938462 22.0088088 0.443938462 22.0088088 2.96068571 24.5042813 2.96068571 24.5042813 0.443938462 25.9426989 0.443938462 25.9426989 6.87945495 24.5042813 6.87945495 24.5042813 4.3453011 22.0088088 4.3453011"></polygon>
                <path d="M29.2442198,7.00137143 C28.5511209,7.00137143 28.0064176,6.8098989 27.610989,6.4266022 C27.2152088,6.04365714 27.0172308,5.51231648 27.0172308,4.83310769 L27.0172308,2.10748132 L28.3775824,2.10748132 L28.3775824,4.84172308 C28.3775824,5.1204044 28.4542418,5.34123956 28.6072088,5.50352527 C28.7603516,5.66616264 28.9725714,5.74739341 29.2442198,5.74739341 C29.5156923,5.74739341 29.7279121,5.66616264 29.8810549,5.50352527 C30.034022,5.34123956 30.1106813,5.1204044 30.1106813,4.84172308 L30.1106813,2.10748132 L31.471033,2.10748132 L31.471033,4.83310769 C31.471033,5.52392088 31.2748132,6.05807473 30.8816703,6.43539341 C30.4888791,6.81288791 29.9431209,7.00137143 29.2442198,7.00137143" id="Fill-7"></path>
                <path d="M32.482993,6.87947253 L33.9223531,6.87947253 L33.9223531,2.10742857 L32.482993,2.10742857 L32.482993,6.87947253 Z M33.2166239,1.61969231 C32.9720183,1.61969231 32.7674052,1.54268132 32.6024126,1.38883516 C32.4374201,1.23516484 32.3548308,1.04210989 32.3548308,0.809846154 C32.3548308,0.577758242 32.4374201,0.384527473 32.6024126,0.230681319 C32.7674052,0.0768351648 32.9720183,-2.0301221e-13 33.2166239,-2.0301221e-13 C33.4549052,-2.0301221e-13 33.6565421,0.0768351648 33.8215346,0.230681319 C33.9865272,0.384527473 34.0691165,0.577758242 34.0691165,0.809846154 C34.0691165,1.04210989 33.9865272,1.23516484 33.8215346,1.38883516 C33.6565421,1.54268132 33.4549052,1.61969231 33.2166239,1.61969231 L33.2166239,1.61969231 Z" id="Fill-8"></path>
            </g>
        </g>
    </g>
</svg>